<?xml version="1.0" standalone="no"?>
<!DOCTYPE svg PUBLIC "-//W3C//DTD SVG 20010904//EN"
 "http://www.w3.org/TR/2001/REC-SVG-20010904/DTD/svg10.dtd">
<svg version="1.0" xmlns="http://www.w3.org/2000/svg"
 width="1200.000000pt" height="1200.000000pt" viewBox="0 0 1200.000000 1200.000000"
 preserveAspectRatio="xMidYMid meet">

<g transform="translate(0.000000,1200.000000) scale(0.100000,-0.100000)"
fill="#000000" stroke="none">
<path d="M3045 10064 c-265 -48 -506 -170 -702 -357 -217 -208 -357 -469 -408
-761 -13 -78 -15 -424 -15 -2946 0 -2464 2 -2869 15 -2941 48 -277 168 -517
359 -716 186 -195 398 -319 669 -391 l102 -26 1045 -4 c1085 -3 1250 0 1250
24 0 7 12 26 28 43 15 16 38 43 51 60 13 17 29 31 37 31 8 0 14 4 14 10 0 5
15 25 33 43 18 19 43 50 57 70 14 20 28 37 32 37 7 0 68 59 68 66 0 2 24 29
54 58 29 30 60 68 67 85 9 20 21 31 35 31 14 0 27 12 40 40 10 22 23 40 27 40
12 0 56 53 57 68 0 6 9 12 20 12 11 0 20 7 20 15 0 9 7 18 15 21 8 3 24 21 35
38 29 47 64 83 86 88 12 2 21 14 24 32 3 19 15 35 35 46 17 9 35 27 41 39 7
13 28 38 48 57 20 19 36 38 36 43 0 27 -126 31 -1035 31 -599 0 -962 4 -1012
11 -539 72 -980 437 -1152 954 -75 226 -72 134 -68 2035 3 1545 5 1702 20
1769 42 185 116 362 214 510 73 110 240 282 351 361 154 110 360 198 552 238
79 16 211 17 1810 17 1611 0 1731 -1 1812 -18 422 -86 780 -352 978 -729 28
-53 68 -149 89 -215 70 -212 71 -228 71 -1157 0 -544 3 -826 10 -826 6 0 10
-9 10 -20 0 -11 4 -20 10 -20 5 0 14 9 20 20 6 11 17 20 25 20 8 0 15 5 15 11
0 6 13 24 29 40 16 16 34 29 40 29 6 0 11 6 11 13 1 17 41 63 63 70 9 4 17 14
17 23 0 8 16 30 36 47 20 18 40 42 44 54 5 12 21 27 36 35 16 7 37 31 49 52
11 22 32 47 47 55 16 9 28 24 28 34 0 9 7 17 15 17 16 0 65 46 65 61 0 5 24
34 54 63 29 30 60 68 67 85 9 20 21 31 35 31 14 0 27 12 40 40 10 22 23 40 27
40 12 0 56 53 57 68 0 6 9 12 20 12 11 0 20 6 20 13 0 6 18 28 40 47 22 19 40
41 40 48 0 17 34 49 57 54 11 2 20 15 23 32 3 19 15 35 35 46 28 15 31 22 38
91 4 41 6 445 4 899 l-3 825 -27 102 c-66 254 -176 450 -351 631 -181 187
-393 309 -659 380 l-102 27 -2905 2 c-2484 1 -2917 -1 -2985 -13z"/>
<path d="M4312 8589 c-254 -33 -513 -179 -675 -380 -85 -104 -168 -269 -205
-404 l-27 -100 0 -1705 0 -1705 27 -100 c37 -135 120 -300 205 -404 134 -167
338 -298 558 -358 l100 -28 1188 0 c1121 0 1189 1 1198 18 6 9 16 17 22 17 7
0 24 18 37 40 14 22 33 40 43 40 9 0 17 6 17 13 1 17 41 63 63 70 9 4 17 14
17 23 0 8 16 30 36 47 20 18 40 42 44 54 5 12 21 27 37 35 15 7 33 24 39 36 6
13 28 39 48 58 20 19 36 41 36 49 0 8 7 15 15 15 18 0 65 47 65 65 0 8 6 15
13 15 6 0 22 18 35 40 12 22 28 40 36 40 7 0 21 18 32 40 13 27 25 40 40 40
14 0 27 12 40 40 10 22 25 40 32 40 6 0 12 5 12 11 0 14 55 69 69 69 6 0 11 6
11 13 0 6 18 28 40 47 22 19 40 41 40 48 0 17 34 49 57 54 11 2 20 15 23 32 3
19 15 35 35 46 17 9 36 29 44 44 7 16 22 31 32 33 11 3 19 9 19 14 0 5 15 24
33 42 18 19 43 50 57 70 14 20 28 37 32 37 8 0 68 59 68 67 0 2 18 22 40 43
22 21 40 43 40 48 0 14 70 82 84 82 7 0 21 18 32 40 10 22 23 40 27 40 12 0
56 53 57 68 0 6 9 12 20 12 11 0 20 7 20 15 0 9 7 18 15 21 8 3 24 21 35 38
29 47 64 83 86 88 11 2 20 13 22 28 5 32 20 50 41 50 22 0 37 26 46 80 7 39 9
42 15 20 20 -79 30 1965 10 2130 -16 127 -45 223 -105 345 -132 272 -375 469
-680 552 l-100 28 -1665 1 c-916 1 -1693 -2 -1728 -7z m3685 -457 c66 -34 109
-78 143 -144 24 -50 30 -74 30 -128 0 -97 -23 -155 -89 -221 -71 -70 -131 -93
-234 -87 -120 6 -206 64 -258 173 -31 65 -38 146 -19 217 24 85 118 181 204
208 53 16 176 6 223 -18z m-1621 -266 c282 -60 529 -169 750 -332 412 -303
682 -754 758 -1266 20 -134 21 -399 1 -537 -108 -762 -669 -1388 -1410 -1575
-187 -47 -309 -59 -530 -53 -276 8 -452 45 -691 146 -574 244 -988 751 -1120
1373 -35 168 -45 467 -20 637 62 422 245 789 540 1086 267 267 600 446 968
519 171 35 168 34 413 31 191 -3 236 -6 341 -29z"/>
<path d="M5735 7480 c-178 -32 -386 -111 -537 -206 -173 -108 -363 -300 -475
-479 -96 -154 -179 -375 -208 -555 -19 -122 -19 -358 0 -480 76 -474 383 -889
820 -1108 109 -54 243 -100 375 -129 121 -26 458 -26 580 0 302 64 556 202
771 416 214 215 352 469 416 771 26 122 26 459 0 580 -39 179 -119 379 -205
514 -229 358 -619 615 -1032 681 -131 21 -376 19 -505 -5z"/>
</g>
</svg>
